<svg width="16" height="16" viewBox="0 0 16 16" fill="none" xmlns="http://www.w3.org/2000/svg">
<path fill-rule="evenodd" clip-rule="evenodd" d="M0 8.03213C0 12.4016 3.59839 16 8.03213 16C12.4016 16 16 12.4016 16 8.03213C16 3.59839 12.4016 0 8.03213 0C3.59839 0 0 3.59839 0 8.03213ZM8.03213 1.15663C9.1245 1.15663 9.83132 3.53414 10.0241 4.43373H5.9759C6.16867 3.53414 6.8755 1.15663 8.03213 1.15663ZM10.4096 8.03213C10.4096 8.80321 10.3454 9.63855 10.2811 10.4096H5.78313C5.65462 9.63855 5.59036 8.80321 5.59036 8.03213C5.59036 7.19679 5.65462 6.4257 5.78313 5.59036H10.2811C10.3454 6.4257 10.4096 7.19679 10.4096 8.03213ZM14.4578 5.71888C14.7791 6.4257 14.9076 7.19679 14.9076 8.03213C14.9076 8.86747 14.7149 9.5743 14.4578 10.4096H11.3735C11.502 9.63855 11.5663 8.80321 11.5663 8.03213C11.5663 7.19679 11.502 6.4257 11.3735 5.59036H14.4578V5.71888ZM8.03213 14.9076C6.8755 14.9076 6.16867 12.4659 5.9759 11.5663H10.0241C9.83132 12.4659 9.1245 14.9076 8.03213 14.9076ZM4.62651 10.4096H1.54217V10.2811C1.28514 9.5743 1.15663 8.80321 1.15663 8.03213C1.15663 7.13253 1.28514 6.4257 1.54217 5.59036H4.62651C4.49799 6.4257 4.43373 7.19679 4.43373 8.03213C4.43373 8.80321 4.49799 9.63855 4.62651 10.4096ZM2.12048 11.5663H4.81928C5.0763 12.7229 5.33333 13.494 5.91165 14.5863C4.11245 13.8795 3.21285 13.1727 2.12048 11.5663ZM11.1807 11.5663H13.8795L13.751 11.8233C12.7871 13.2369 11.6948 13.9438 10.1526 14.5863C10.6667 13.494 10.9237 12.7229 11.1807 11.5663ZM13.8795 4.43373H11.1807C10.9237 3.27711 10.6667 2.50602 10.1526 1.47791C11.8875 2.18474 12.8514 2.82731 13.8795 4.43373ZM4.81928 4.43373H2.12048C3.14859 2.82731 4.11245 2.18474 5.91165 1.47791C5.33333 2.44177 5.0763 3.34137 4.81928 4.43373Z" fill="white"/>
</svg>
