<svg width="15" height="15" viewBox="0 0 15 15" fill="none" xmlns="http://www.w3.org/2000/svg">
<path d="M7.5 0C3.3645 0 0 3.3645 0 7.5C0 11.6355 3.3645 15 7.5 15C11.6355 15 15 11.6355 15 7.5C15 3.3645 11.6355 0 7.5 0ZM1.5 7.5C1.5 6.82575 1.617 6.1785 1.82325 5.57325L3 6.75L4.5 8.25V9.75L6 11.25L6.75 12V13.4482C3.79575 13.077 1.5 10.554 1.5 7.5ZM12.2475 11.1547C11.7577 10.7602 11.0153 10.5 10.5 10.5V9.75C10.5 9.35218 10.342 8.97064 10.0607 8.68934C9.77936 8.40804 9.39782 8.25 9 8.25H6V6C6.39782 6 6.77936 5.84196 7.06066 5.56066C7.34196 5.27936 7.5 4.89782 7.5 4.5V3.75H8.25C8.64782 3.75 9.02936 3.59196 9.31066 3.31066C9.59196 3.02936 9.75 2.64782 9.75 2.25V1.94175C11.946 2.8335 13.5 4.9875 13.5 7.5C13.4999 8.82352 13.0592 10.1094 12.2475 11.1547Z" fill="#616262"/>
</svg>
